<svg width="330" height="669" viewBox="0 0 330 669" fill="none" xmlns="http://www.w3.org/2000/svg">
<path d="M330 249C330 266.386 328.442 283.407 325.457 299.933C309.81 386.568 254.968 459.577 180 500V249H330Z" fill="black"/>
<path fill-rule="evenodd" clip-rule="evenodd" d="M330 249C330 266.386 328.442 283.407 325.457 299.933C309.81 386.568 254.968 459.577 180 500V150C180 67.1573 247.157 0 330 0V249Z" fill="black"/>
<path d="M150 418C150 435.386 148.442 452.407 145.457 468.933C129.81 555.568 74.9684 628.577 0 669V418H150Z" fill="black"/>
<path fill-rule="evenodd" clip-rule="evenodd" d="M150 418C150 435.386 148.442 452.407 145.457 468.933C129.81 555.568 74.9684 628.577 0 669V319C0 236.157 67.1573 169 150 169V418Z" fill="black"/>
<circle cx="75" cy="75" r="75" fill="#CDC733"/>
</svg>
